<svg xmlns="http://www.w3.org/2000/svg" viewBox="0 0 1200 1600" role="img" aria-labelledby="title desc" data-portrait-version="v1.3" data-refinement-depth="7" data-revision="3" data-art-mode="structural-abstract" data-growth-age="7" data-growth-season="0" data-active-force="torsion" data-material-state="abraded ink" data-convergence-hash="2cfdfa6456d25c85296f9de096b186740898601190536d14ea4283c7bbc85f3c" data-render-hash="4f308913c2dd11ad348aaae4843dfed000365f98be552c6bbdb72c2a729b7d33" data-memory-signature="010406020801100507030a0b0f0e090d0c022c0309" data-permutation="4-6-2-8-1-16-5-7-3-10-11-15-14-9-13-12">
  <title id="title">Abstract Fold portrait v1.3 for zero poet</title>
  <desc id="desc">A deterministic structural portrait generated from a FoldKernel memory signature, permutation, and convergence hash, with iteration-specific drawing refinement.</desc>
  <metadata>age 7 season 0 active force torsion | compression 0.75 torsion 0.84 shear 0.78 | bloom 0.26 erosion 0.41 sediment 0.41 | fiber memory 0.41 material abraded ink</metadata>
  <defs>
    <filter id="paperGrain" x="-10%" y="-10%" width="120%" height="120%">
      <feTurbulence type="fractalNoise" baseFrequency="0.018" numOctaves="3" seed="17"/>
      <feColorMatrix type="saturate" values="0"/>
      <feComponentTransfer>
        <feFuncA type="table" tableValues="0 0.10"/>
      </feComponentTransfer>
    </filter>
  </defs>
  <rect width="1200" height="1600" fill="#d0d0d0"/>
  <rect width="1200" height="1600" filter="url(#paperGrain)" opacity="0.55"/>
  <path data-layer="hash-rib" d="M150 279 C505 520 695 980 1110 1355" fill="none" stroke="#1f2933" stroke-width="2.67" opacity="0.15"/>
  <path data-layer="hash-rib" d="M220 308 C576 529 624 975 1076 1209" fill="none" stroke="#1f2933" stroke-width="2.67" opacity="0.16"/>
  <path data-layer="hash-rib" d="M290 305 C674 538 526 970 1042 1182" fill="none" stroke="#1f2933" stroke-width="2.67" opacity="0.13"/>
  <path data-layer="hash-rib" d="M360 335 C740 547 460 965 1008 1225" fill="none" stroke="#1f2933" stroke-width="2.67" opacity="0.19"/>
  <path data-layer="hash-rib" d="M430 321 C559 556 641 960 974 1243" fill="none" stroke="#1f2933" stroke-width="2.67" opacity="0.18"/>
  <path data-layer="hash-rib" d="M500 265 C488 565 712 955 940 1351" fill="none" stroke="#1f2933" stroke-width="2.67" opacity="0.12"/>
  <path data-layer="hash-rib" d="M570 327 C597 574 603 950 906 1207" fill="none" stroke="#1f2933" stroke-width="2.67" opacity="0.11"/>
  <path data-layer="hash-rib" d="M640 368 C738 583 462 945 872 1263" fill="none" stroke="#1f2933" stroke-width="2.67" opacity="0.13"/>
  <path data-layer="hash-rib" d="M710 276 C728 592 472 940 838 1342" fill="none" stroke="#1f2933" stroke-width="2.67" opacity="0.12"/>
  <path data-layer="hash-rib" d="M780 346 C488 601 712 935 804 1215" fill="none" stroke="#1f2933" stroke-width="2.67" opacity="0.17"/>
  <path data-layer="hash-rib" d="M850 392 C484 610 716 930 770 1276" fill="none" stroke="#1f2933" stroke-width="2.67" opacity="0.11"/>
  <path data-layer="hash-rib" d="M920 279 C609 619 591 925 736 1250" fill="none" stroke="#1f2933" stroke-width="2.67" opacity="0.13"/>
  <path data-layer="hash-rib" d="M990 385 C679 628 521 920 702 1339" fill="none" stroke="#1f2933" stroke-width="2.67" opacity="0.17"/>
  <path data-layer="hash-rib" d="M1060 412 C628 637 572 915 668 1345" fill="none" stroke="#1f2933" stroke-width="2.67" opacity="0.18"/>
  <path data-layer="hash-rib" d="M1130 369 C500 646 700 910 634 1293" fill="none" stroke="#1f2933" stroke-width="2.67" opacity="0.14"/>
  <rect data-layer="memory-byte" x="204" y="202" width="29" height="54" fill="#55466b" opacity="0.17" transform="rotate(-3 204 202)"/>
  <rect data-layer="memory-byte" x="356" y="176" width="32" height="47" fill="#55466b" opacity="0.20" transform="rotate(6 356 176)"/>
  <rect data-layer="memory-byte" x="523" y="196" width="34" height="44" fill="#55466b" opacity="0.22" transform="rotate(18 523 196)"/>
  <rect data-layer="memory-byte" x="664" y="181" width="30" height="56" fill="#55466b" opacity="0.18" transform="rotate(4 664 181)"/>
  <rect data-layer="memory-byte" x="842" y="191" width="36" height="42" fill="#55466b" opacity="0.24" transform="rotate(9 842 191)"/>
  <rect data-layer="memory-byte" x="1002" y="195" width="29" height="58" fill="#55466b" opacity="0.17" transform="rotate(1 1002 195)"/>
  <rect data-layer="memory-byte" x="196" y="321" width="44" height="48" fill="#55466b" opacity="0.32" transform="rotate(-2 196 321)"/>
  <rect data-layer="memory-byte" x="372" y="309" width="33" height="35" fill="#55466b" opacity="0.21" transform="rotate(-22 372 309)"/>
  <rect data-layer="memory-byte" x="513" y="300" width="35" height="51" fill="#55466b" opacity="0.23" transform="rotate(5 513 300)"/>
  <rect data-layer="memory-byte" x="679" y="324" width="31" height="13" fill="#55466b" opacity="0.19" transform="rotate(-6 679 324)"/>
  <rect data-layer="memory-byte" x="839" y="318" width="38" height="59" fill="#55466b" opacity="0.26" transform="rotate(-21 839 318)"/>
  <rect data-layer="memory-byte" x="1003" y="292" width="39" height="18" fill="#55466b" opacity="0.27" transform="rotate(3 1003 292)"/>
  <rect data-layer="memory-byte" x="211" y="417" width="43" height="52" fill="#55466b" opacity="0.31" transform="rotate(-8 211 417)"/>
  <rect data-layer="memory-byte" x="358" y="422" width="42" height="25" fill="#55466b" opacity="0.30" transform="rotate(-3 358 422)"/>
  <rect data-layer="memory-byte" x="538" y="429" width="37" height="36" fill="#55466b" opacity="0.25" transform="rotate(-20 538 429)"/>
  <rect data-layer="memory-byte" x="688" y="434" width="41" height="18" fill="#55466b" opacity="0.29" transform="rotate(20 688 434)"/>
  <rect data-layer="memory-byte" x="818" y="421" width="40" height="18" fill="#55466b" opacity="0.28" transform="rotate(-12 818 421)"/>
  <rect data-layer="memory-byte" x="981" y="416" width="30" height="54" fill="#55466b" opacity="0.18" transform="rotate(1 981 416)"/>
  <rect data-layer="memory-byte" x="206" y="541" width="72" height="52" fill="#55466b" opacity="0.24" transform="rotate(13 206 541)"/>
  <rect data-layer="memory-byte" x="369" y="552" width="31" height="27" fill="#55466b" opacity="0.19" transform="rotate(11 369 552)"/>
  <rect data-layer="memory-byte" x="530" y="551" width="37" height="46" fill="#55466b" opacity="0.25" transform="rotate(14 530 551)"/>
  <path data-layer="memory-spine" d="M491 170 L493 226" fill="none" stroke="#1f2933" stroke-width="1" opacity="0.18"/>
  <path data-layer="memory-spine" d="M493 226 L495 282" fill="none" stroke="#1f2933" stroke-width="1" opacity="0.18"/>
  <path data-layer="memory-spine" d="M495 282 L492 338" fill="none" stroke="#1f2933" stroke-width="1" opacity="0.18"/>
  <path data-layer="memory-spine" d="M492 338 L497 394" fill="none" stroke="#1f2933" stroke-width="1" opacity="0.18"/>
  <path data-layer="memory-spine" d="M497 394 L491 450" fill="none" stroke="#1f2933" stroke-width="1" opacity="0.18"/>
  <path data-layer="memory-spine" d="M491 450 L504 506" fill="none" stroke="#1f2933" stroke-width="1" opacity="0.18"/>
  <path data-layer="memory-spine" d="M504 506 L494 562" fill="none" stroke="#1f2933" stroke-width="1" opacity="0.18"/>
  <path data-layer="memory-spine" d="M494 562 L496 618" fill="none" stroke="#1f2933" stroke-width="1" opacity="0.18"/>
  <path data-layer="memory-spine" d="M496 618 L493 674" fill="none" stroke="#1f2933" stroke-width="1" opacity="0.18"/>
  <path data-layer="memory-spine" d="M493 674 L499 730" fill="none" stroke="#1f2933" stroke-width="1" opacity="0.18"/>
  <path data-layer="memory-spine" d="M499 730 L499 786" fill="none" stroke="#1f2933" stroke-width="1" opacity="0.18"/>
  <path data-layer="memory-spine" d="M499 786 L503 842" fill="none" stroke="#1f2933" stroke-width="1" opacity="0.18"/>
  <path data-layer="memory-spine" d="M503 842 L502 898" fill="none" stroke="#1f2933" stroke-width="1" opacity="0.18"/>
  <path data-layer="memory-spine" d="M502 898 L498 954" fill="none" stroke="#1f2933" stroke-width="1" opacity="0.18"/>
  <path data-layer="memory-spine" d="M498 954 L501 1010" fill="none" stroke="#1f2933" stroke-width="1" opacity="0.18"/>
  <path data-layer="memory-spine" d="M501 1010 L500 1066" fill="none" stroke="#1f2933" stroke-width="1" opacity="0.18"/>
  <path data-layer="memory-spine" d="M500 1066 L492 1122" fill="none" stroke="#1f2933" stroke-width="1" opacity="0.18"/>
  <path data-layer="memory-spine" d="M492 1122 L528 1178" fill="none" stroke="#1f2933" stroke-width="1" opacity="0.18"/>
  <path data-layer="memory-spine" d="M528 1178 L493 1234" fill="none" stroke="#1f2933" stroke-width="1" opacity="0.18"/>
  <path data-layer="memory-spine" d="M493 1234 L498 1290" fill="none" stroke="#1f2933" stroke-width="1" opacity="0.18"/>
  <path data-layer="memory-spine" d="M498 1290 L491 170" fill="none" stroke="#1f2933" stroke-width="1" opacity="0.18"/>
  <ellipse data-layer="color-field" cx="219" cy="168" rx="299" ry="154" fill="#3dbebe" opacity="0.25" transform="rotate(-36 219 168)"/>
  <ellipse data-layer="color-field" cx="498" cy="348" rx="335" ry="187" fill="#5cc2dd" opacity="0.23" transform="rotate(33 498 348)"/>
  <ellipse data-layer="color-field" cx="584" cy="770" rx="294" ry="196" fill="#5cc2dd" opacity="0.13" transform="rotate(-42 584 770)"/>
  <ellipse data-layer="color-field" cx="759" cy="753" rx="216" ry="230" fill="#3dbebe" opacity="0.19" transform="rotate(-14 759 753)"/>
  <ellipse data-layer="color-field" cx="878" cy="1049" rx="206" ry="242" fill="#5cc2dd" opacity="0.20" transform="rotate(-28 878 1049)"/>
  <ellipse data-layer="color-field" cx="1008" cy="1219" rx="204" ry="249" fill="#5cc2dd" opacity="0.22" transform="rotate(-25 1008 1219)"/>
  <ellipse data-layer="color-field" cx="167" cy="197" rx="241" ry="183" fill="#3dbebe" opacity="0.22" transform="rotate(22 167 197)"/>
  <ellipse data-layer="color-field" cx="198" cy="551" rx="163" ry="152" fill="#5cc2dd" opacity="0.22" transform="rotate(3 198 551)"/>
  <ellipse data-layer="color-field" cx="368" cy="706" rx="332" ry="363" fill="#5cc2dd" opacity="0.17" transform="rotate(42 368 706)"/>
  <ellipse data-layer="color-field" cx="514" cy="1033" rx="370" ry="135" fill="#3dbebe" opacity="0.11" transform="rotate(8 514 1033)"/>
  <ellipse data-layer="color-field" cx="685" cy="1142" rx="352" ry="220" fill="#5cc2dd" opacity="0.19" transform="rotate(20 685 1142)"/>
  <ellipse data-layer="color-field" cx="834" cy="150" rx="345" ry="179" fill="#5cc2dd" opacity="0.17" transform="rotate(9 834 150)"/>
  <ellipse data-layer="growth-ring" cx="566" cy="800" rx="233" ry="179" fill="none" stroke="#3dbebe" stroke-width="1.69" opacity="0.12" transform="rotate(54 566 800)"/>
  <ellipse data-layer="growth-ring" cx="632" cy="801" rx="264" ry="202" fill="none" stroke="#1f2933" stroke-width="1.69" opacity="0.14" transform="rotate(63 632 801)"/>
  <ellipse data-layer="growth-ring" cx="689" cy="660" rx="295" ry="225" fill="none" stroke="#3dbebe" stroke-width="1.69" opacity="0.13" transform="rotate(27 689 660)"/>
  <ellipse data-layer="growth-ring" cx="570" cy="769" rx="326" ry="248" fill="none" stroke="#1f2933" stroke-width="1.69" opacity="0.10" transform="rotate(51 570 769)"/>
  <ellipse data-layer="growth-ring" cx="590" cy="787" rx="357" ry="271" fill="none" stroke="#3dbebe" stroke-width="1.69" opacity="0.14" transform="rotate(23 590 787)"/>
  <path data-layer="lineage-leap" d="M103 -80 L297 -80 L1107 1680 L913 1680 Z" fill="#3dbebe" opacity="0.34" transform="rotate(16 600 800)"/>
  <ellipse data-layer="lineage-leap" cx="600" cy="800" rx="289" ry="144" fill="none" stroke="#3dbebe" stroke-width="22" opacity="0.48" transform="rotate(106 600 800)"/>
  <path data-layer="lineage-leap" d="M146 264 C251 44 887 484 996 216" fill="none" stroke="#55466b" stroke-width="27" stroke-linecap="round" opacity="0.33"/>
  <path data-layer="lineage-leap" d="M166 492 C302 272 942 712 1118 534" fill="none" stroke="#1f2933" stroke-width="27" stroke-linecap="round" opacity="0.39"/>
  <path data-layer="lineage-leap" d="M143 637 C319 417 891 857 986 644" fill="none" stroke="#55466b" stroke-width="27" stroke-linecap="round" opacity="0.29"/>
  <path data-layer="lineage-leap" d="M97 835 C330 615 864 1055 1035 914" fill="none" stroke="#1f2933" stroke-width="27" stroke-linecap="round" opacity="0.30"/>
  <path data-layer="lineage-leap" d="M92 1006 C232 786 918 1226 1012 1021" fill="none" stroke="#55466b" stroke-width="27" stroke-linecap="round" opacity="0.39"/>
  <path data-layer="lineage-leap" d="M90 1184 C185 964 857 1404 1016 1223" fill="none" stroke="#1f2933" stroke-width="27" stroke-linecap="round" opacity="0.41"/>
  <path data-layer="lineage-leap" d="M112 1381 C500 1161 740 1601 1099 1398" fill="none" stroke="#55466b" stroke-width="27" stroke-linecap="round" opacity="0.37"/>
  <path data-layer="lineage-leap" d="M194 1550 C160 1330 726 1770 1066 1556" fill="none" stroke="#1f2933" stroke-width="27" stroke-linecap="round" opacity="0.28"/>
  <circle data-layer="lineage-leap" cx="76" cy="104" r="15" fill="#55466b" opacity="0.22"/>
  <circle data-layer="lineage-leap" cx="1124" cy="254" r="18" fill="#55466b" opacity="0.26"/>
  <circle data-layer="lineage-leap" cx="76" cy="343" r="22" fill="#55466b" opacity="0.30"/>
  <circle data-layer="lineage-leap" cx="1124" cy="478" r="14" fill="#55466b" opacity="0.34"/>
  <circle data-layer="lineage-leap" cx="76" cy="601" r="18" fill="#55466b" opacity="0.22"/>
  <circle data-layer="lineage-leap" cx="1124" cy="730" r="19" fill="#55466b" opacity="0.26"/>
  <circle data-layer="lineage-leap" cx="76" cy="825" r="16" fill="#55466b" opacity="0.30"/>
  <circle data-layer="lineage-leap" cx="1124" cy="925" r="14" fill="#55466b" opacity="0.34"/>
  <circle data-layer="lineage-leap" cx="76" cy="1084" r="19" fill="#55466b" opacity="0.22"/>
  <circle data-layer="lineage-leap" cx="1124" cy="1190" r="18" fill="#55466b" opacity="0.26"/>
  <circle data-layer="lineage-leap" cx="76" cy="1260" r="21" fill="#55466b" opacity="0.30"/>
  <circle data-layer="lineage-leap" cx="1124" cy="1388" r="23" fill="#55466b" opacity="0.34"/>
  <g transform="translate(64 -5) rotate(0.72 600 800)">
  <path data-layer="gesture" d="M377 258 C897 78 883 439 297 279" fill="none" stroke="#55466b" stroke-width="11" stroke-linecap="round" opacity="0.29"/>
  <path data-layer="gesture" d="M722 514 C663 334 1064 702 334 542" fill="none" stroke="#1f2933" stroke-width="3" stroke-linecap="round" opacity="0.24"/>
  <path data-layer="gesture" d="M296 514 C445 334 998 866 644 706" fill="none" stroke="#1f2933" stroke-width="4" stroke-linecap="round" opacity="0.17"/>
  <path data-layer="gesture" d="M536 520 C425 340 814 955 885 795" fill="none" stroke="#1f2933" stroke-width="5" stroke-linecap="round" opacity="0.30"/>
  <path data-layer="gesture" d="M140 596 C513 416 665 1008 883 848" fill="none" stroke="#55466b" stroke-width="6" stroke-linecap="round" opacity="0.20"/>
  <path data-layer="gesture" d="M710 710 C790 530 451 1072 989 912" fill="none" stroke="#1f2933" stroke-width="11" stroke-linecap="round" opacity="0.28"/>
  <path data-layer="gesture" d="M707 891 C711 711 481 1116 246 956" fill="none" stroke="#1f2933" stroke-width="3" stroke-linecap="round" opacity="0.29"/>
  <path data-layer="gesture" d="M482 946 C409 766 376 1234 484 1074" fill="none" stroke="#1f2933" stroke-width="4" stroke-linecap="round" opacity="0.22"/>
  <path data-layer="gesture" d="M377 922 C897 742 883 1311 653 1151" fill="none" stroke="#55466b" stroke-width="5" stroke-linecap="round" opacity="0.29"/>
  <path data-layer="gesture" d="M722 1178 C663 998 1064 554 690 394" fill="none" stroke="#1f2933" stroke-width="6" stroke-linecap="round" opacity="0.24"/>
  <path data-layer="gesture" d="M296 1178 C445 998 998 718 1000 558" fill="none" stroke="#1f2933" stroke-width="11" stroke-linecap="round" opacity="0.17"/>
  <path data-layer="gesture" d="M536 1184 C425 1004 814 807 341 647" fill="none" stroke="#1f2933" stroke-width="3" stroke-linecap="round" opacity="0.30"/>
  <path data-layer="gesture" d="M140 220 C513 40 665 860 339 700" fill="none" stroke="#55466b" stroke-width="4" stroke-linecap="round" opacity="0.20"/>
  <path data-layer="gesture" d="M710 334 C790 154 451 924 445 764" fill="none" stroke="#1f2933" stroke-width="5" stroke-linecap="round" opacity="0.28"/>
  <path data-layer="gesture" d="M707 515 C711 335 481 968 602 808" fill="none" stroke="#1f2933" stroke-width="6" stroke-linecap="round" opacity="0.29"/>
  <path data-layer="gesture" d="M482 570 C409 390 376 1086 840 926" fill="none" stroke="#1f2933" stroke-width="11" stroke-linecap="round" opacity="0.22"/>
  <path data-layer="gesture" d="M377 546 C897 366 883 1163 1009 1003" fill="none" stroke="#55466b" stroke-width="3" stroke-linecap="round" opacity="0.29"/>
  <path data-layer="gesture" d="M722 802 C663 622 1064 1426 1046 1266" fill="none" stroke="#1f2933" stroke-width="4" stroke-linecap="round" opacity="0.24"/>
  <path data-layer="gesture" d="M296 802 C445 622 998 570 456 410" fill="none" stroke="#1f2933" stroke-width="5" stroke-linecap="round" opacity="0.17"/>
  <path data-layer="gesture" d="M536 808 C425 628 814 659 697 499" fill="none" stroke="#1f2933" stroke-width="6" stroke-linecap="round" opacity="0.30"/>
  <ellipse data-layer="fold-aura" cx="589" cy="758" rx="145" ry="184" fill="none" stroke="#1f2933" stroke-width="2" opacity="0.10" transform="rotate(16 589 758)"/>
  <ellipse data-layer="fold-aura" cx="608" cy="790" rx="167" ry="212" fill="none" stroke="#1f2933" stroke-width="2" opacity="0.11" transform="rotate(-24 608 790)"/>
  <ellipse data-layer="fold-aura" cx="621" cy="831" rx="189" ry="240" fill="none" stroke="#1f2933" stroke-width="2" opacity="0.12" transform="rotate(-24 621 831)"/>
  <ellipse data-layer="fold-aura" cx="586" cy="828" rx="211" ry="268" fill="none" stroke="#1f2933" stroke-width="2" opacity="0.13" transform="rotate(-4 586 828)"/>
  <ellipse data-layer="fold-aura" cx="572" cy="758" rx="233" ry="296" fill="none" stroke="#1f2933" stroke-width="2" opacity="0.14" transform="rotate(8 572 758)"/>
  <ellipse data-layer="fold-aura" cx="593" cy="757" rx="255" ry="324" fill="none" stroke="#1f2933" stroke-width="2" opacity="0.15" transform="rotate(-1 593 757)"/>
  <ellipse data-layer="fold-aura" cx="620" cy="793" rx="277" ry="352" fill="none" stroke="#1f2933" stroke-width="2" opacity="0.16" transform="rotate(-22 620 793)"/>
  <ellipse data-layer="fold-aura" cx="618" cy="814" rx="299" ry="380" fill="none" stroke="#1f2933" stroke-width="2" opacity="0.17" transform="rotate(-14 618 814)"/>
  <ellipse data-layer="fold-aura" cx="572" cy="799" rx="321" ry="408" fill="none" stroke="#1f2933" stroke-width="2" opacity="0.18" transform="rotate(-22 572 799)"/>
  <ellipse data-layer="fold-aura" cx="572" cy="762" rx="343" ry="436" fill="none" stroke="#1f2933" stroke-width="2" opacity="0.19" transform="rotate(3 572 762)"/>
  <rect data-layer="fold-glyph" x="371" y="547" width="83" height="83" fill="none" stroke="#1f2933" stroke-width="2" opacity="0.26" transform="rotate(1 412 588)"/>
  <rect data-layer="fold-glyph" x="478" y="551" width="62" height="62" fill="none" stroke="#1f2933" stroke-width="3" opacity="0.24" transform="rotate(-15 509 582)"/>
  <rect data-layer="fold-glyph" x="601" y="522" width="69" height="69" fill="none" stroke="#1f2933" stroke-width="4" opacity="0.34" transform="rotate(28 635 556)"/>
  <rect data-layer="fold-glyph" x="696" y="544" width="76" height="76" fill="none" stroke="#1f2933" stroke-width="5" opacity="0.26" transform="rotate(18 734 582)"/>
  <rect data-layer="fold-glyph" x="387" y="638" width="62" height="62" fill="none" stroke="#1f2933" stroke-width="2" opacity="0.18" transform="rotate(-28 418 669)"/>
  <rect data-layer="fold-glyph" x="502" y="650" width="62" height="62" fill="#3dbebe" stroke="#1f2933" stroke-width="3" opacity="0.35" transform="rotate(-16 533 681)"/>
  <rect data-layer="fold-glyph" x="584" y="655" width="55" height="55" fill="none" stroke="#1f2933" stroke-width="4" opacity="0.30" transform="rotate(-7 611 682)"/>
  <rect data-layer="fold-glyph" x="717" y="663" width="69" height="69" fill="none" stroke="#1f2933" stroke-width="5" opacity="0.28" transform="rotate(5 751 697)"/>
  <rect data-layer="fold-glyph" x="367" y="761" width="76" height="76" fill="none" stroke="#1f2933" stroke-width="2" opacity="0.18" transform="rotate(14 405 799)"/>
  <rect data-layer="fold-glyph" x="490" y="751" width="55" height="55" fill="none" stroke="#1f2933" stroke-width="3" opacity="0.28" transform="rotate(-9 517 778)"/>
  <rect data-layer="fold-glyph" x="606" y="778" width="62" height="62" fill="#3dbebe" stroke="#1f2933" stroke-width="4" opacity="0.25" transform="rotate(-18 637 809)"/>
  <rect data-layer="fold-glyph" x="725" y="771" width="55" height="55" fill="none" stroke="#1f2933" stroke-width="5" opacity="0.38" transform="rotate(-5 752 798)"/>
  <rect data-layer="fold-glyph" x="379" y="853" width="83" height="83" fill="none" stroke="#1f2933" stroke-width="2" opacity="0.32" transform="rotate(14 420 894)"/>
  <rect data-layer="fold-glyph" x="480" y="861" width="83" height="83" fill="none" stroke="#1f2933" stroke-width="3" opacity="0.37" transform="rotate(12 521 902)"/>
  <rect data-layer="fold-glyph" x="618" y="866" width="76" height="76" fill="#3dbebe" stroke="#1f2933" stroke-width="4" opacity="0.18" transform="rotate(-18 656 904)"/>
  <rect data-layer="fold-glyph" x="722" y="874" width="69" height="69" fill="#3dbebe" stroke="#1f2933" stroke-width="5" opacity="0.37" transform="rotate(-19 756 908)"/>
  <path data-layer="fine-drawing" d="M379 398 q8 -10 17 4" fill="none" stroke="#1f2933" stroke-width="1" stroke-linecap="round" opacity="0.19"/>
  <path data-layer="fine-drawing" d="M362 603 q6 7 13 -6" fill="none" stroke="#1f2933" stroke-width="1" stroke-linecap="round" opacity="0.13"/>
  <path data-layer="fine-drawing" d="M403 641 q10 7 20 -12" fill="none" stroke="#1f2933" stroke-width="1" stroke-linecap="round" opacity="0.11"/>
  <path data-layer="fine-drawing" d="M567 697 q10 17 20 2" fill="none" stroke="#1f2933" stroke-width="1" stroke-linecap="round" opacity="0.21"/>
  <path data-layer="fine-drawing" d="M604 647 q23 1 46 -8" fill="none" stroke="#1f2933" stroke-width="1" stroke-linecap="round" opacity="0.17"/>
  <path data-layer="fine-drawing" d="M723 645 q11 0 22 5" fill="none" stroke="#1f2933" stroke-width="1" stroke-linecap="round" opacity="0.18"/>
  <path data-layer="fine-drawing" d="M653 856 q13 15 26 -1" fill="none" stroke="#1f2933" stroke-width="1" stroke-linecap="round" opacity="0.11"/>
  <path data-layer="fine-drawing" d="M686 807 q15 -6 31 -7" fill="none" stroke="#1f2933" stroke-width="1" stroke-linecap="round" opacity="0.10"/>
  <path data-layer="fine-drawing" d="M833 1005 q6 6 12 1" fill="none" stroke="#1f2933" stroke-width="1" stroke-linecap="round" opacity="0.18"/>
  <path data-layer="fine-drawing" d="M729 995 q17 -5 35 9" fill="none" stroke="#1f2933" stroke-width="1" stroke-linecap="round" opacity="0.14"/>
  <path data-layer="fine-drawing" d="M855 991 q23 15 47 -7" fill="none" stroke="#1f2933" stroke-width="1" stroke-linecap="round" opacity="0.12"/>
  <path data-layer="fine-drawing" d="M821 1136 q15 12 31 9" fill="none" stroke="#1f2933" stroke-width="1" stroke-linecap="round" opacity="0.21"/>
  <path data-layer="fine-drawing" d="M410 479 q14 12 29 12" fill="none" stroke="#1f2933" stroke-width="1" stroke-linecap="round" opacity="0.15"/>
  <path data-layer="fine-drawing" d="M432 369 q9 -3 18 -7" fill="none" stroke="#1f2933" stroke-width="1" stroke-linecap="round" opacity="0.21"/>
  <path data-layer="fine-drawing" d="M472 604 q6 -12 12 6" fill="none" stroke="#1f2933" stroke-width="1" stroke-linecap="round" opacity="0.20"/>
  <path data-layer="fine-drawing" d="M406 689 q22 9 44 -2" fill="none" stroke="#1f2933" stroke-width="1" stroke-linecap="round" opacity="0.10"/>
  <path data-layer="fine-drawing" d="M388 548 q9 -6 19 -8" fill="none" stroke="#1f2933" stroke-width="1" stroke-linecap="round" opacity="0.16"/>
  <path data-layer="fine-drawing" d="M583 743 q26 14 53 3" fill="none" stroke="#1f2933" stroke-width="1" stroke-linecap="round" opacity="0.09"/>
  <path data-layer="fine-drawing" d="M518 719 q12 4 25 -5" fill="none" stroke="#1f2933" stroke-width="1" stroke-linecap="round" opacity="0.22"/>
  <path data-layer="fine-drawing" d="M700 715 q27 -5 54 -10" fill="none" stroke="#1f2933" stroke-width="1" stroke-linecap="round" opacity="0.15"/>
  <path data-layer="fine-drawing" d="M674 885 q24 7 49 -10" fill="none" stroke="#1f2933" stroke-width="1" stroke-linecap="round" opacity="0.21"/>
  <path data-layer="fine-drawing" d="M654 868 q8 19 16 1" fill="none" stroke="#1f2933" stroke-width="1" stroke-linecap="round" opacity="0.14"/>
  <path data-layer="fine-drawing" d="M783 867 q15 -5 30 0" fill="none" stroke="#1f2933" stroke-width="1" stroke-linecap="round" opacity="0.11"/>
  <path data-layer="fine-drawing" d="M310 924 q26 20 53 8" fill="none" stroke="#1f2933" stroke-width="1" stroke-linecap="round" opacity="0.14"/>
  <path data-layer="fine-drawing" d="M784 1104 q25 24 50 -3" fill="none" stroke="#1f2933" stroke-width="1" stroke-linecap="round" opacity="0.09"/>
  <path data-layer="fine-drawing" d="M403 357 q14 -4 29 -4" fill="none" stroke="#1f2933" stroke-width="1" stroke-linecap="round" opacity="0.21"/>
  <path data-layer="fine-drawing" d="M472 492 q6 15 12 6" fill="none" stroke="#1f2933" stroke-width="1" stroke-linecap="round" opacity="0.11"/>
  <path data-layer="fine-drawing" d="M315 438 q16 3 32 -8" fill="none" stroke="#1f2933" stroke-width="1" stroke-linecap="round" opacity="0.10"/>
  <path data-layer="fine-drawing" d="M494 487 q6 -6 12 0" fill="none" stroke="#1f2933" stroke-width="1" stroke-linecap="round" opacity="0.11"/>
  <path data-layer="fine-drawing" d="M454 650 q9 10 19 -7" fill="none" stroke="#1f2933" stroke-width="1" stroke-linecap="round" opacity="0.18"/>
  <path data-layer="fine-drawing" d="M434 562 q19 -1 38 6" fill="none" stroke="#1f2933" stroke-width="1" stroke-linecap="round" opacity="0.20"/>
  <path data-layer="fine-drawing" d="M588 704 q9 -9 19 4" fill="none" stroke="#1f2933" stroke-width="1" stroke-linecap="round" opacity="0.20"/>
  <path data-layer="fine-drawing" d="M555 686 q8 -10 17 4" fill="none" stroke="#1f2933" stroke-width="1" stroke-linecap="round" opacity="0.19"/>
  <path data-layer="fine-drawing" d="M538 891 q6 7 13 -6" fill="none" stroke="#1f2933" stroke-width="1" stroke-linecap="round" opacity="0.13"/>
  <path data-layer="fine-drawing" d="M579 929 q10 7 20 -12" fill="none" stroke="#1f2933" stroke-width="1" stroke-linecap="round" opacity="0.11"/>
  <path data-layer="fine-drawing" d="M743 985 q10 17 20 2" fill="none" stroke="#1f2933" stroke-width="1" stroke-linecap="round" opacity="0.21"/>
  <path data-layer="fine-drawing" d="M780 935 q23 1 46 -8" fill="none" stroke="#1f2933" stroke-width="1" stroke-linecap="round" opacity="0.17"/>
  <path data-layer="fine-drawing" d="M899 933 q11 0 22 5" fill="none" stroke="#1f2933" stroke-width="1" stroke-linecap="round" opacity="0.18"/>
  <path data-layer="fine-drawing" d="M829 1144 q13 15 26 -1" fill="none" stroke="#1f2933" stroke-width="1" stroke-linecap="round" opacity="0.11"/>
  <path data-layer="fine-drawing" d="M862 1095 q15 -6 31 -7" fill="none" stroke="#1f2933" stroke-width="1" stroke-linecap="round" opacity="0.10"/>
  <path data-layer="fine-drawing" d="M409 493 q6 6 12 1" fill="none" stroke="#1f2933" stroke-width="1" stroke-linecap="round" opacity="0.18"/>
  <path data-layer="fine-drawing" d="M305 483 q17 -5 35 9" fill="none" stroke="#1f2933" stroke-width="1" stroke-linecap="round" opacity="0.14"/>
  <path data-layer="fine-drawing" d="M431 479 q23 15 47 -7" fill="none" stroke="#1f2933" stroke-width="1" stroke-linecap="round" opacity="0.12"/>
  <path data-layer="fine-drawing" d="M397 624 q15 12 31 9" fill="none" stroke="#1f2933" stroke-width="1" stroke-linecap="round" opacity="0.21"/>
  <path data-layer="fine-drawing" d="M586 767 q14 12 29 12" fill="none" stroke="#1f2933" stroke-width="1" stroke-linecap="round" opacity="0.15"/>
  <path data-layer="fine-drawing" d="M608 657 q9 -3 18 -7" fill="none" stroke="#1f2933" stroke-width="1" stroke-linecap="round" opacity="0.21"/>
  <path data-layer="fine-drawing" d="M648 892 q6 -12 12 6" fill="none" stroke="#1f2933" stroke-width="1" stroke-linecap="round" opacity="0.20"/>
  <path data-layer="fine-drawing" d="M582 977 q22 9 44 -2" fill="none" stroke="#1f2933" stroke-width="1" stroke-linecap="round" opacity="0.10"/>
  <path data-layer="fine-drawing" d="M564 836 q9 -6 19 -8" fill="none" stroke="#1f2933" stroke-width="1" stroke-linecap="round" opacity="0.16"/>
  <path data-layer="fine-drawing" d="M759 1031 q26 14 53 3" fill="none" stroke="#1f2933" stroke-width="1" stroke-linecap="round" opacity="0.09"/>
  <path data-layer="fine-drawing" d="M694 1007 q12 4 25 -5" fill="none" stroke="#1f2933" stroke-width="1" stroke-linecap="round" opacity="0.22"/>
  <path data-layer="fine-drawing" d="M876 1003 q27 -5 54 -10" fill="none" stroke="#1f2933" stroke-width="1" stroke-linecap="round" opacity="0.15"/>
  <path data-layer="fine-drawing" d="M850 373 q24 7 49 -10" fill="none" stroke="#1f2933" stroke-width="1" stroke-linecap="round" opacity="0.21"/>
  <path data-layer="fine-drawing" d="M830 356 q8 19 16 1" fill="none" stroke="#1f2933" stroke-width="1" stroke-linecap="round" opacity="0.14"/>
  <path data-layer="fine-drawing" d="M359 355 q15 -5 30 0" fill="none" stroke="#1f2933" stroke-width="1" stroke-linecap="round" opacity="0.11"/>
  <path data-layer="fine-drawing" d="M486 412 q26 20 53 8" fill="none" stroke="#1f2933" stroke-width="1" stroke-linecap="round" opacity="0.14"/>
  <path data-layer="fine-drawing" d="M360 592 q25 24 50 -3" fill="none" stroke="#1f2933" stroke-width="1" stroke-linecap="round" opacity="0.09"/>
  <path data-layer="fine-drawing" d="M579 645 q14 -4 29 -4" fill="none" stroke="#1f2933" stroke-width="1" stroke-linecap="round" opacity="0.21"/>
  <path data-layer="fine-drawing" d="M648 780 q6 15 12 6" fill="none" stroke="#1f2933" stroke-width="1" stroke-linecap="round" opacity="0.11"/>
  <path data-layer="fine-drawing" d="M491 726 q16 3 32 -8" fill="none" stroke="#1f2933" stroke-width="1" stroke-linecap="round" opacity="0.10"/>
  <path data-layer="fine-drawing" d="M670 775 q6 -6 12 0" fill="none" stroke="#1f2933" stroke-width="1" stroke-linecap="round" opacity="0.11"/>
  <path data-layer="fine-drawing" d="M630 938 q9 10 19 -7" fill="none" stroke="#1f2933" stroke-width="1" stroke-linecap="round" opacity="0.18"/>
  <path data-layer="fine-drawing" d="M610 850 q19 -1 38 6" fill="none" stroke="#1f2933" stroke-width="1" stroke-linecap="round" opacity="0.20"/>
  <path data-layer="fine-drawing" d="M764 992 q9 -9 19 4" fill="none" stroke="#1f2933" stroke-width="1" stroke-linecap="round" opacity="0.20"/>
  <path data-layer="fine-drawing" d="M731 974 q8 -10 17 4" fill="none" stroke="#1f2933" stroke-width="1" stroke-linecap="round" opacity="0.19"/>
  <path data-layer="fine-drawing" d="M714 379 q6 7 13 -6" fill="none" stroke="#1f2933" stroke-width="1" stroke-linecap="round" opacity="0.13"/>
  <path data-layer="fine-drawing" d="M755 417 q10 7 20 -12" fill="none" stroke="#1f2933" stroke-width="1" stroke-linecap="round" opacity="0.11"/>
  <path data-layer="fine-drawing" d="M319 473 q10 17 20 2" fill="none" stroke="#1f2933" stroke-width="1" stroke-linecap="round" opacity="0.21"/>
  <path data-layer="fine-drawing" d="M356 423 q23 1 46 -8" fill="none" stroke="#1f2933" stroke-width="1" stroke-linecap="round" opacity="0.17"/>
  <path data-layer="fine-drawing" d="M475 421 q11 0 22 5" fill="none" stroke="#1f2933" stroke-width="1" stroke-linecap="round" opacity="0.18"/>
  </g>
  <path data-layer="fold-notation" d="M58 159 l54 13" fill="none" stroke="#1f2933" stroke-width="3" stroke-linecap="round" opacity="0.44"/>
  <path data-layer="fold-notation" d="M1050 209 l68 1" fill="none" stroke="#1f2933" stroke-width="3" stroke-linecap="round" opacity="0.44"/>
  <path data-layer="fold-notation" d="M118 300 l40 -8" fill="none" stroke="#1f2933" stroke-width="3" stroke-linecap="round" opacity="0.44"/>
  <path data-layer="fold-notation" d="M997 381 l82 16" fill="none" stroke="#1f2933" stroke-width="3" stroke-linecap="round" opacity="0.44"/>
  <path data-layer="fold-notation" d="M104 466 l33 10" fill="none" stroke="#1f2933" stroke-width="3" stroke-linecap="round" opacity="0.44"/>
  <path data-layer="fold-notation" d="M1007 521 l75 -16" fill="none" stroke="#1f2933" stroke-width="3" stroke-linecap="round" opacity="0.44"/>
  <path data-layer="fold-notation" d="M93 580 l61 -9" fill="none" stroke="#1f2933" stroke-width="3" stroke-linecap="round" opacity="0.44"/>
  <path data-layer="fold-notation" d="M1043 694 l75 -4" fill="none" stroke="#1f2933" stroke-width="3" stroke-linecap="round" opacity="0.44"/>
  <path data-layer="fold-notation" d="M120 758 l47 3" fill="none" stroke="#1f2933" stroke-width="3" stroke-linecap="round" opacity="0.44"/>
  <path data-layer="fold-notation" d="M1031 790 l33 8" fill="none" stroke="#1f2933" stroke-width="3" stroke-linecap="round" opacity="0.44"/>
  <path data-layer="fold-notation" d="M70 875 l40 -5" fill="none" stroke="#1f2933" stroke-width="3" stroke-linecap="round" opacity="0.44"/>
  <path data-layer="fold-notation" d="M1068 957 l68 -10" fill="none" stroke="#1f2933" stroke-width="3" stroke-linecap="round" opacity="0.44"/>
  <path data-layer="fold-notation" d="M114 1043 l61 -3" fill="none" stroke="#1f2933" stroke-width="3" stroke-linecap="round" opacity="0.44"/>
  <path data-layer="fold-notation" d="M992 1125 l26 8" fill="none" stroke="#1f2933" stroke-width="3" stroke-linecap="round" opacity="0.44"/>
  <path data-layer="fold-notation" d="M68 1177 l54 7" fill="none" stroke="#1f2933" stroke-width="3" stroke-linecap="round" opacity="0.44"/>
  <path data-layer="fold-notation" d="M1020 1243 l47 -10" fill="none" stroke="#1f2933" stroke-width="3" stroke-linecap="round" opacity="0.44"/>
  <circle data-layer="field-dust" cx="199" cy="341" r="1" fill="#1f2933" opacity="0.20"/>
  <circle data-layer="field-dust" cx="265" cy="268" r="2" fill="#1f2933" opacity="0.20"/>
  <circle data-layer="field-dust" cx="451" cy="555" r="3" fill="#1f2933" opacity="0.14"/>
  <circle data-layer="field-dust" cx="430" cy="565" r="1" fill="#1f2933" opacity="0.14"/>
  <circle data-layer="field-dust" cx="702" cy="782" r="2" fill="#1f2933" opacity="0.23"/>
  <circle data-layer="field-dust" cx="826" cy="945" r="3" fill="#1f2933" opacity="0.24"/>
  <circle data-layer="field-dust" cx="719" cy="1134" r="1" fill="#1f2933" opacity="0.10"/>
  <circle data-layer="field-dust" cx="972" cy="1169" r="2" fill="#1f2933" opacity="0.10"/>
  <circle data-layer="field-dust" cx="948" cy="1229" r="3" fill="#1f2933" opacity="0.16"/>
  <circle data-layer="field-dust" cx="171" cy="273" r="1" fill="#1f2933" opacity="0.25"/>
  <circle data-layer="field-dust" cx="300" cy="358" r="2" fill="#1f2933" opacity="0.18"/>
  <circle data-layer="field-dust" cx="455" cy="281" r="3" fill="#1f2933" opacity="0.24"/>
  <circle data-layer="field-dust" cx="456" cy="466" r="1" fill="#1f2933" opacity="0.15"/>
  <circle data-layer="field-dust" cx="482" cy="638" r="2" fill="#1f2933" opacity="0.22"/>
  <circle data-layer="field-dust" cx="772" cy="826" r="3" fill="#1f2933" opacity="0.21"/>
  <circle data-layer="field-dust" cx="823" cy="995" r="1" fill="#1f2933" opacity="0.23"/>
  <circle data-layer="field-dust" cx="712" cy="1021" r="2" fill="#1f2933" opacity="0.17"/>
  <circle data-layer="field-dust" cx="863" cy="1111" r="3" fill="#1f2933" opacity="0.22"/>
  <circle data-layer="field-dust" cx="1001" cy="1305" r="1" fill="#1f2933" opacity="0.20"/>
  <circle data-layer="field-dust" cx="195" cy="238" r="2" fill="#1f2933" opacity="0.12"/>
  <circle data-layer="field-dust" cx="330" cy="363" r="3" fill="#1f2933" opacity="0.21"/>
  <circle data-layer="field-dust" cx="322" cy="355" r="1" fill="#1f2933" opacity="0.23"/>
  <circle data-layer="field-dust" cx="378" cy="484" r="2" fill="#1f2933" opacity="0.13"/>
  <circle data-layer="field-dust" cx="538" cy="687" r="3" fill="#1f2933" opacity="0.25"/>
  <circle data-layer="field-dust" cx="717" cy="859" r="1" fill="#1f2933" opacity="0.10"/>
  <circle data-layer="field-dust" cx="808" cy="960" r="2" fill="#1f2933" opacity="0.19"/>
  <circle data-layer="field-dust" cx="766" cy="1017" r="3" fill="#1f2933" opacity="0.13"/>
  <circle data-layer="field-dust" cx="861" cy="1176" r="1" fill="#1f2933" opacity="0.12"/>
  <circle data-layer="field-dust" cx="1030" cy="1276" r="2" fill="#1f2933" opacity="0.23"/>
  <circle data-layer="field-dust" cx="208" cy="216" r="3" fill="#1f2933" opacity="0.11"/>
  <circle data-layer="field-dust" cx="275" cy="229" r="1" fill="#1f2933" opacity="0.23"/>
  <circle data-layer="field-dust" cx="298" cy="535" r="2" fill="#1f2933" opacity="0.14"/>
  <circle data-layer="field-dust" cx="423" cy="693" r="3" fill="#1f2933" opacity="0.20"/>
  <circle data-layer="field-dust" cx="489" cy="620" r="1" fill="#1f2933" opacity="0.20"/>
  <circle data-layer="field-dust" cx="675" cy="907" r="2" fill="#1f2933" opacity="0.14"/>
  <path data-layer="material-weathering" d="M174 168 l93 -16" fill="none" stroke="#55466b" stroke-width="1.33" stroke-linecap="round" opacity="0.11"/>
  <path data-layer="material-weathering" d="M387 240 l129 -9" fill="none" stroke="#1f2933" stroke-width="1.33" stroke-linecap="round" opacity="0.11"/>
  <path data-layer="material-weathering" d="M407 554 l88 -8" fill="none" stroke="#1f2933" stroke-width="1.33" stroke-linecap="round" opacity="0.15"/>
  <path data-layer="material-weathering" d="M516 429 l100 -1" fill="none" stroke="#1f2933" stroke-width="1.33" stroke-linecap="round" opacity="0.09"/>
  <path data-layer="material-weathering" d="M569 617 l90 2" fill="none" stroke="#55466b" stroke-width="1.33" stroke-linecap="round" opacity="0.14"/>
  <path data-layer="material-weathering" d="M633 679 l88 3" fill="none" stroke="#1f2933" stroke-width="1.33" stroke-linecap="round" opacity="0.12"/>
  <path data-layer="material-weathering" d="M646 789 l125 -10" fill="none" stroke="#1f2933" stroke-width="1.33" stroke-linecap="round" opacity="0.10"/>
  <path data-layer="material-weathering" d="M611 1035 l87 -17" fill="none" stroke="#1f2933" stroke-width="1.33" stroke-linecap="round" opacity="0.14"/>
  <path data-layer="material-weathering" d="M715 1082 l126 26" fill="none" stroke="#55466b" stroke-width="1.33" stroke-linecap="round" opacity="0.13"/>
  <path data-layer="material-weathering" d="M795 1301 l74 -20" fill="none" stroke="#1f2933" stroke-width="1.33" stroke-linecap="round" opacity="0.15"/>
  <path data-layer="material-weathering" d="M900 1302 l56 -3" fill="none" stroke="#1f2933" stroke-width="1.33" stroke-linecap="round" opacity="0.13"/>
  <path data-layer="material-weathering" d="M983 122 l49 -11" fill="none" stroke="#1f2933" stroke-width="1.33" stroke-linecap="round" opacity="0.11"/>
  <path data-layer="material-weathering" d="M1061 191 l81 -10" fill="none" stroke="#55466b" stroke-width="1.33" stroke-linecap="round" opacity="0.16"/>
  <path data-layer="material-weathering" d="M1066 276 l65 20" fill="none" stroke="#1f2933" stroke-width="1.33" stroke-linecap="round" opacity="0.14"/>
  <path data-layer="material-weathering" d="M96 415 l98 8" fill="none" stroke="#1f2933" stroke-width="1.33" stroke-linecap="round" opacity="0.11"/>
  <path data-layer="material-weathering" d="M378 477 l107 32" fill="none" stroke="#1f2933" stroke-width="1.33" stroke-linecap="round" opacity="0.09"/>
  <path data-layer="material-weathering" d="M221 502 l51 11" fill="none" stroke="#55466b" stroke-width="1.33" stroke-linecap="round" opacity="0.15"/>
  <path data-layer="material-weathering" d="M377 595 l63 19" fill="none" stroke="#1f2933" stroke-width="1.33" stroke-linecap="round" opacity="0.16"/>
  <path data-layer="material-weathering" d="M407 696 l70 12" fill="none" stroke="#1f2933" stroke-width="1.33" stroke-linecap="round" opacity="0.14"/>
  <path data-layer="material-weathering" d="M485 836 l94 8" fill="none" stroke="#1f2933" stroke-width="1.33" stroke-linecap="round" opacity="0.12"/>
  <path data-layer="material-weathering" d="M699 1081 l63 15" fill="none" stroke="#55466b" stroke-width="1.33" stroke-linecap="round" opacity="0.13"/>
  <path data-layer="material-weathering" d="M714 1133 l94 7" fill="none" stroke="#1f2933" stroke-width="1.33" stroke-linecap="round" opacity="0.14"/>
  <path data-layer="material-weathering" d="M901 1274 l46 -9" fill="none" stroke="#1f2933" stroke-width="1.33" stroke-linecap="round" opacity="0.16"/>
  <path data-layer="material-weathering" d="M870 1359 l131 -11" fill="none" stroke="#1f2933" stroke-width="1.33" stroke-linecap="round" opacity="0.12"/>
  <path data-layer="material-weathering" d="M978 135 l90 -11" fill="none" stroke="#55466b" stroke-width="1.33" stroke-linecap="round" opacity="0.11"/>
  <path data-layer="material-weathering" d="M1015 180 l97 -4" fill="none" stroke="#1f2933" stroke-width="1.33" stroke-linecap="round" opacity="0.09"/>
  <path data-layer="material-weathering" d="M1068 177 l60 25" fill="none" stroke="#1f2933" stroke-width="1.33" stroke-linecap="round" opacity="0.10"/>
  <path data-layer="material-weathering" d="M165 313 l94 15" fill="none" stroke="#1f2933" stroke-width="1.33" stroke-linecap="round" opacity="0.13"/>
  <path data-layer="material-weathering" d="M195 425 l120 22" fill="none" stroke="#55466b" stroke-width="1.33" stroke-linecap="round" opacity="0.09"/>
  <path data-layer="material-weathering" d="M188 562 l108 19" fill="none" stroke="#1f2933" stroke-width="1.33" stroke-linecap="round" opacity="0.14"/>
  <path data-layer="material-weathering" d="M249 677 l55 17" fill="none" stroke="#1f2933" stroke-width="1.33" stroke-linecap="round" opacity="0.13"/>
  <path data-layer="material-weathering" d="M318 787 l111 5" fill="none" stroke="#1f2933" stroke-width="1.33" stroke-linecap="round" opacity="0.12"/>
  <path data-layer="material-weathering" d="M426 824 l93 -16" fill="none" stroke="#55466b" stroke-width="1.33" stroke-linecap="round" opacity="0.11"/>
  <path data-layer="material-weathering" d="M639 896 l129 -9" fill="none" stroke="#1f2933" stroke-width="1.33" stroke-linecap="round" opacity="0.11"/>
  <path data-layer="material-weathering" d="M659 1210 l88 -8" fill="none" stroke="#1f2933" stroke-width="1.33" stroke-linecap="round" opacity="0.15"/>
  <g font-family="ui-monospace, SFMono-Regular, Menlo, monospace" fill="#1f2933">
    <text x="600" y="1460" text-anchor="middle" font-size="30">4f308913c2dd11ad</text>
    <text x="600" y="1482" text-anchor="middle" font-size="17" opacity="0.72">abstract study v1.3</text>
    <text x="600" y="1510" text-anchor="middle" font-size="15" opacity="0.72">field width 0.90 vertical 1.14 taper 1.19</text>
    <text x="600" y="1526" text-anchor="middle" font-size="15" opacity="0.72">paired interval 0.98 mark scale 1.03 tension -10.85</text>
    <text x="600" y="1542" text-anchor="middle" font-size="15" opacity="0.72">central descent 1.01 breadth 1.01</text>
    <text x="600" y="1558" text-anchor="middle" font-size="15" opacity="0.72">lateral span 1.16 curve pressure 7.41</text>
    <text x="600" y="1574" text-anchor="middle" font-size="15" opacity="0.72">surface activity 0.06 dense mass 1.08</text>
    <text x="600" y="1590" text-anchor="middle" font-size="15" opacity="0.72">axis light 48.45 strength 0.29</text>
  </g>
</svg>