<svg xmlns="http://www.w3.org/2000/svg" viewBox="0 0 1200 1600" role="img" aria-labelledby="title desc" data-refinement-depth="7" data-art-mode="structural-abstract" data-convergence-hash="2cfdfa6456d25c85296f9de096b186740898601190536d14ea4283c7bbc85f3c" data-render-hash="5af19cfcc5729d16be8e556fd76709c11697d1f8d16a93f825fe2091acc0da19" data-memory-signature="010406020801100507030a0b0f0e090d0c022c0309" data-permutation="4-6-2-8-1-16-5-7-3-10-11-15-14-9-13-12">
  <title id="title">Abstract Fold portrait v0001 for zero poet</title>
  <desc id="desc">A deterministic structural portrait generated from a FoldKernel memory signature, permutation, and convergence hash, with iteration-specific drawing refinement.</desc>
  <defs>
    <filter id="paperGrain" x="-10%" y="-10%" width="120%" height="120%">
      <feTurbulence type="fractalNoise" baseFrequency="0.018" numOctaves="3" seed="157"/>
      <feColorMatrix type="saturate" values="0"/>
      <feComponentTransfer>
        <feFuncA type="table" tableValues="0 0.10"/>
      </feComponentTransfer>
    </filter>
  </defs>
  <rect width="1200" height="1600" fill="#d0f1d0"/>
  <rect width="1200" height="1600" filter="url(#paperGrain)" opacity="0.55"/>
  <path data-layer="hash-rib" d="M150 254 C641 520 559 980 1110 1366" fill="none" stroke="#1f2933" stroke-width="2" opacity="0.14"/>
  <path data-layer="hash-rib" d="M220 283 C741 529 459 975 1076 1220" fill="none" stroke="#1f2933" stroke-width="2" opacity="0.15"/>
  <path data-layer="hash-rib" d="M290 280 C808 538 392 970 1042 1193" fill="none" stroke="#1f2933" stroke-width="2" opacity="0.12"/>
  <path data-layer="hash-rib" d="M360 310 C741 547 459 965 1008 1236" fill="none" stroke="#1f2933" stroke-width="2" opacity="0.18"/>
  <path data-layer="hash-rib" d="M430 296 C563 556 637 960 974 1254" fill="none" stroke="#1f2933" stroke-width="2" opacity="0.17"/>
  <path data-layer="hash-rib" d="M500 240 C634 565 566 955 940 1362" fill="none" stroke="#1f2933" stroke-width="2" opacity="0.11"/>
  <path data-layer="hash-rib" d="M570 302 C808 574 392 950 906 1218" fill="none" stroke="#1f2933" stroke-width="2" opacity="0.10"/>
  <path data-layer="hash-rib" d="M640 343 C444 583 756 945 872 1274" fill="none" stroke="#1f2933" stroke-width="2" opacity="0.12"/>
  <path data-layer="hash-rib" d="M710 251 C818 592 382 940 838 1353" fill="none" stroke="#1f2933" stroke-width="2" opacity="0.11"/>
  <path data-layer="hash-rib" d="M780 321 C435 601 765 935 804 1226" fill="none" stroke="#1f2933" stroke-width="2" opacity="0.16"/>
  <path data-layer="hash-rib" d="M850 367 C630 610 570 930 770 1287" fill="none" stroke="#1f2933" stroke-width="2" opacity="0.10"/>
  <path data-layer="hash-rib" d="M920 254 C677 619 523 925 736 1261" fill="none" stroke="#1f2933" stroke-width="2" opacity="0.12"/>
  <path data-layer="hash-rib" d="M990 360 C711 628 489 920 702 1350" fill="none" stroke="#1f2933" stroke-width="2" opacity="0.16"/>
  <path data-layer="hash-rib" d="M1060 387 C756 637 444 915 668 1356" fill="none" stroke="#1f2933" stroke-width="2" opacity="0.17"/>
  <path data-layer="hash-rib" d="M1130 344 C423 646 777 910 634 1304" fill="none" stroke="#1f2933" stroke-width="2" opacity="0.13"/>
  <rect data-layer="memory-byte" x="205" y="188" width="29" height="54" fill="#6a93da" opacity="0.17" transform="rotate(-3 205 188)"/>
  <rect data-layer="memory-byte" x="380" y="194" width="32" height="47" fill="#6a93da" opacity="0.20" transform="rotate(6 380 194)"/>
  <rect data-layer="memory-byte" x="526" y="177" width="34" height="44" fill="#6a93da" opacity="0.22" transform="rotate(18 526 177)"/>
  <rect data-layer="memory-byte" x="694" y="198" width="30" height="56" fill="#6a93da" opacity="0.18" transform="rotate(4 694 198)"/>
  <rect data-layer="memory-byte" x="843" y="192" width="36" height="42" fill="#6a93da" opacity="0.24" transform="rotate(9 843 192)"/>
  <rect data-layer="memory-byte" x="988" y="185" width="29" height="58" fill="#6a93da" opacity="0.17" transform="rotate(1 988 185)"/>
  <rect data-layer="memory-byte" x="214" y="306" width="44" height="48" fill="#6a93da" opacity="0.32" transform="rotate(-2 214 306)"/>
  <rect data-layer="memory-byte" x="353" y="319" width="33" height="35" fill="#6a93da" opacity="0.21" transform="rotate(-22 353 319)"/>
  <rect data-layer="memory-byte" x="530" y="305" width="35" height="51" fill="#6a93da" opacity="0.23" transform="rotate(5 530 305)"/>
  <rect data-layer="memory-byte" x="680" y="293" width="31" height="13" fill="#6a93da" opacity="0.19" transform="rotate(-6 680 293)"/>
  <rect data-layer="memory-byte" x="829" y="316" width="38" height="59" fill="#6a93da" opacity="0.26" transform="rotate(-21 829 316)"/>
  <rect data-layer="memory-byte" x="988" y="295" width="39" height="18" fill="#6a93da" opacity="0.27" transform="rotate(3 988 295)"/>
  <rect data-layer="memory-byte" x="221" y="429" width="43" height="52" fill="#6a93da" opacity="0.31" transform="rotate(-8 221 429)"/>
  <rect data-layer="memory-byte" x="363" y="436" width="42" height="25" fill="#6a93da" opacity="0.30" transform="rotate(-3 363 436)"/>
  <rect data-layer="memory-byte" x="507" y="441" width="37" height="36" fill="#6a93da" opacity="0.25" transform="rotate(-20 507 441)"/>
  <rect data-layer="memory-byte" x="686" y="436" width="41" height="18" fill="#6a93da" opacity="0.29" transform="rotate(20 686 436)"/>
  <rect data-layer="memory-byte" x="821" y="423" width="40" height="18" fill="#6a93da" opacity="0.28" transform="rotate(-12 821 423)"/>
  <rect data-layer="memory-byte" x="993" y="428" width="30" height="54" fill="#6a93da" opacity="0.18" transform="rotate(1 993 428)"/>
  <rect data-layer="memory-byte" x="220" y="559" width="72" height="52" fill="#6a93da" opacity="0.24" transform="rotate(13 220 559)"/>
  <rect data-layer="memory-byte" x="381" y="533" width="31" height="27" fill="#6a93da" opacity="0.19" transform="rotate(11 381 533)"/>
  <rect data-layer="memory-byte" x="532" y="560" width="37" height="46" fill="#6a93da" opacity="0.25" transform="rotate(14 532 560)"/>
  <path data-layer="memory-spine" d="M491 170 L493 226" fill="none" stroke="#1f2933" stroke-width="1" opacity="0.18"/>
  <path data-layer="memory-spine" d="M493 226 L495 282" fill="none" stroke="#1f2933" stroke-width="1" opacity="0.18"/>
  <path data-layer="memory-spine" d="M495 282 L492 338" fill="none" stroke="#1f2933" stroke-width="1" opacity="0.18"/>
  <path data-layer="memory-spine" d="M492 338 L497 394" fill="none" stroke="#1f2933" stroke-width="1" opacity="0.18"/>
  <path data-layer="memory-spine" d="M497 394 L491 450" fill="none" stroke="#1f2933" stroke-width="1" opacity="0.18"/>
  <path data-layer="memory-spine" d="M491 450 L504 506" fill="none" stroke="#1f2933" stroke-width="1" opacity="0.18"/>
  <path data-layer="memory-spine" d="M504 506 L494 562" fill="none" stroke="#1f2933" stroke-width="1" opacity="0.18"/>
  <path data-layer="memory-spine" d="M494 562 L496 618" fill="none" stroke="#1f2933" stroke-width="1" opacity="0.18"/>
  <path data-layer="memory-spine" d="M496 618 L493 674" fill="none" stroke="#1f2933" stroke-width="1" opacity="0.18"/>
  <path data-layer="memory-spine" d="M493 674 L499 730" fill="none" stroke="#1f2933" stroke-width="1" opacity="0.18"/>
  <path data-layer="memory-spine" d="M499 730 L499 786" fill="none" stroke="#1f2933" stroke-width="1" opacity="0.18"/>
  <path data-layer="memory-spine" d="M499 786 L503 842" fill="none" stroke="#1f2933" stroke-width="1" opacity="0.18"/>
  <path data-layer="memory-spine" d="M503 842 L502 898" fill="none" stroke="#1f2933" stroke-width="1" opacity="0.18"/>
  <path data-layer="memory-spine" d="M502 898 L498 954" fill="none" stroke="#1f2933" stroke-width="1" opacity="0.18"/>
  <path data-layer="memory-spine" d="M498 954 L501 1010" fill="none" stroke="#1f2933" stroke-width="1" opacity="0.18"/>
  <path data-layer="memory-spine" d="M501 1010 L500 1066" fill="none" stroke="#1f2933" stroke-width="1" opacity="0.18"/>
  <path data-layer="memory-spine" d="M500 1066 L492 1122" fill="none" stroke="#1f2933" stroke-width="1" opacity="0.18"/>
  <path data-layer="memory-spine" d="M492 1122 L528 1178" fill="none" stroke="#1f2933" stroke-width="1" opacity="0.18"/>
  <path data-layer="memory-spine" d="M528 1178 L493 1234" fill="none" stroke="#1f2933" stroke-width="1" opacity="0.18"/>
  <path data-layer="memory-spine" d="M493 1234 L498 1290" fill="none" stroke="#1f2933" stroke-width="1" opacity="0.18"/>
  <path data-layer="memory-spine" d="M498 1290 L491 170" fill="none" stroke="#1f2933" stroke-width="1" opacity="0.18"/>
  <ellipse data-layer="color-field" cx="230" cy="361" rx="306" ry="362" fill="#6730be" opacity="0.27" transform="rotate(10 230 361)"/>
  <ellipse data-layer="color-field" cx="391" cy="488" rx="172" ry="300" fill="#fcc572" opacity="0.26" transform="rotate(-5 391 488)"/>
  <ellipse data-layer="color-field" cx="499" cy="653" rx="365" ry="213" fill="#fcc572" opacity="0.19" transform="rotate(-35 499 653)"/>
  <ellipse data-layer="color-field" cx="744" cy="775" rx="301" ry="319" fill="#6730be" opacity="0.24" transform="rotate(-7 744 775)"/>
  <ellipse data-layer="color-field" cx="897" cy="1070" rx="297" ry="358" fill="#fcc572" opacity="0.11" transform="rotate(-31 897 1070)"/>
  <ellipse data-layer="color-field" cx="159" cy="1207" rx="295" ry="282" fill="#fcc572" opacity="0.22" transform="rotate(-34 159 1207)"/>
  <ellipse data-layer="color-field" cx="260" cy="171" rx="240" ry="351" fill="#6730be" opacity="0.22" transform="rotate(23 260 171)"/>
  <ellipse data-layer="color-field" cx="431" cy="554" rx="264" ry="267" fill="#fcc572" opacity="0.14" transform="rotate(5 431 554)"/>
  <ellipse data-layer="color-field" cx="506" cy="710" rx="235" ry="221" fill="#fcc572" opacity="0.27" transform="rotate(-39 506 710)"/>
  <ellipse data-layer="color-field" cx="556" cy="788" rx="343" ry="132" fill="#6730be" opacity="0.17" transform="rotate(40 556 788)"/>
  <ellipse data-layer="color-field" cx="799" cy="1238" rx="359" ry="216" fill="#fcc572" opacity="0.13" transform="rotate(-30 799 1238)"/>
  <ellipse data-layer="color-field" cx="975" cy="1238" rx="184" ry="142" fill="#fcc572" opacity="0.11" transform="rotate(21 975 1238)"/>
  <g transform="rotate(3.72 600 800)">
  <path data-layer="gesture" d="M410 451 C562 271 432 672 316 512" fill="none" stroke="#6a93da" stroke-width="9" stroke-linecap="round" opacity="0.32"/>
  <path data-layer="gesture" d="M731 407 C641 227 726 551 474 391" fill="none" stroke="#1f2933" stroke-width="3" stroke-linecap="round" opacity="0.29"/>
  <path data-layer="gesture" d="M710 518 C531 338 996 749 559 589" fill="none" stroke="#1f2933" stroke-width="4" stroke-linecap="round" opacity="0.23"/>
  <path data-layer="gesture" d="M785 562 C666 382 1177 940 640 780" fill="none" stroke="#1f2933" stroke-width="5" stroke-linecap="round" opacity="0.32"/>
  <path data-layer="gesture" d="M206 693 C539 513 1177 1104 997 944" fill="none" stroke="#6a93da" stroke-width="6" stroke-linecap="round" opacity="0.18"/>
  <path data-layer="gesture" d="M767 731 C957 551 838 1213 192 1053" fill="none" stroke="#1f2933" stroke-width="9" stroke-linecap="round" opacity="0.28"/>
  <path data-layer="gesture" d="M251 962 C782 782 442 1219 234 1059" fill="none" stroke="#1f2933" stroke-width="3" stroke-linecap="round" opacity="0.23"/>
  <path data-layer="gesture" d="M656 983 C920 803 1190 1208 577 1048" fill="none" stroke="#1f2933" stroke-width="4" stroke-linecap="round" opacity="0.22"/>
  <path data-layer="gesture" d="M410 1115 C562 935 432 524 672 364" fill="none" stroke="#6a93da" stroke-width="5" stroke-linecap="round" opacity="0.32"/>
  <path data-layer="gesture" d="M731 1071 C641 891 726 1423 830 1263" fill="none" stroke="#1f2933" stroke-width="6" stroke-linecap="round" opacity="0.29"/>
  <path data-layer="gesture" d="M710 1182 C531 1002 996 601 915 441" fill="none" stroke="#1f2933" stroke-width="9" stroke-linecap="round" opacity="0.23"/>
  <path data-layer="gesture" d="M785 1226 C666 1046 1177 792 996 632" fill="none" stroke="#1f2933" stroke-width="3" stroke-linecap="round" opacity="0.32"/>
  <path data-layer="gesture" d="M206 317 C539 137 1177 956 453 796" fill="none" stroke="#6a93da" stroke-width="4" stroke-linecap="round" opacity="0.18"/>
  <path data-layer="gesture" d="M767 355 C957 175 838 1065 548 905" fill="none" stroke="#1f2933" stroke-width="5" stroke-linecap="round" opacity="0.28"/>
  <path data-layer="gesture" d="M251 586 C782 406 442 1071 590 911" fill="none" stroke="#1f2933" stroke-width="6" stroke-linecap="round" opacity="0.23"/>
  <path data-layer="gesture" d="M656 607 C920 427 1190 1060 933 900" fill="none" stroke="#1f2933" stroke-width="9" stroke-linecap="round" opacity="0.22"/>
  <path data-layer="gesture" d="M410 739 C562 559 432 1396 1028 1236" fill="none" stroke="#6a93da" stroke-width="3" stroke-linecap="round" opacity="0.32"/>
  <path data-layer="gesture" d="M731 695 C641 515 726 1275 286 1115" fill="none" stroke="#1f2933" stroke-width="4" stroke-linecap="round" opacity="0.29"/>
  <path data-layer="gesture" d="M710 806 C531 626 996 453 371 293" fill="none" stroke="#1f2933" stroke-width="5" stroke-linecap="round" opacity="0.23"/>
  <path data-layer="gesture" d="M785 850 C666 670 1177 644 452 484" fill="none" stroke="#1f2933" stroke-width="6" stroke-linecap="round" opacity="0.32"/>
  <ellipse data-layer="fold-aura" cx="627" cy="810" rx="145" ry="184" fill="none" stroke="#1f2933" stroke-width="2" opacity="0.10" transform="rotate(36 627 810)"/>
  <ellipse data-layer="fold-aura" cx="640" cy="860" rx="167" ry="212" fill="none" stroke="#1f2933" stroke-width="2" opacity="0.11" transform="rotate(-27 640 860)"/>
  <ellipse data-layer="fold-aura" cx="627" cy="755" rx="189" ry="240" fill="none" stroke="#1f2933" stroke-width="2" opacity="0.12" transform="rotate(5 627 755)"/>
  <ellipse data-layer="fold-aura" cx="593" cy="863" rx="211" ry="268" fill="none" stroke="#1f2933" stroke-width="2" opacity="0.13" transform="rotate(13 593 863)"/>
  <ellipse data-layer="fold-aura" cx="606" cy="752" rx="233" ry="296" fill="none" stroke="#1f2933" stroke-width="2" opacity="0.14" transform="rotate(18 606 752)"/>
  <ellipse data-layer="fold-aura" cx="640" cy="809" rx="255" ry="324" fill="none" stroke="#1f2933" stroke-width="2" opacity="0.15" transform="rotate(26 640 809)"/>
  <ellipse data-layer="fold-aura" cx="570" cy="822" rx="277" ry="352" fill="none" stroke="#1f2933" stroke-width="2" opacity="0.16" transform="rotate(-29 570 822)"/>
  <ellipse data-layer="fold-aura" cx="642" cy="832" rx="299" ry="380" fill="none" stroke="#1f2933" stroke-width="2" opacity="0.17" transform="rotate(-11 642 832)"/>
  <ellipse data-layer="fold-aura" cx="569" cy="845" rx="321" ry="408" fill="none" stroke="#1f2933" stroke-width="2" opacity="0.18" transform="rotate(32 569 845)"/>
  <ellipse data-layer="fold-aura" cx="606" cy="749" rx="343" ry="436" fill="none" stroke="#1f2933" stroke-width="2" opacity="0.19" transform="rotate(8 606 749)"/>
  <rect data-layer="fold-glyph" x="373" y="548" width="83" height="83" fill="none" stroke="#1f2933" stroke-width="2" opacity="0.32" transform="rotate(19 414 589)"/>
  <rect data-layer="fold-glyph" x="505" y="536" width="62" height="62" fill="none" stroke="#1f2933" stroke-width="3" opacity="0.28" transform="rotate(-5 536 567)"/>
  <rect data-layer="fold-glyph" x="604" y="542" width="69" height="69" fill="none" stroke="#1f2933" stroke-width="4" opacity="0.37" transform="rotate(-26 638 576)"/>
  <rect data-layer="fold-glyph" x="729" y="523" width="76" height="76" fill="none" stroke="#1f2933" stroke-width="5" opacity="0.19" transform="rotate(14 767 561)"/>
  <rect data-layer="fold-glyph" x="388" y="658" width="62" height="62" fill="none" stroke="#1f2933" stroke-width="2" opacity="0.35" transform="rotate(-23 419 689)"/>
  <rect data-layer="fold-glyph" x="487" y="651" width="62" height="62" fill="#6730be" stroke="#1f2933" stroke-width="3" opacity="0.33" transform="rotate(5 518 682)"/>
  <rect data-layer="fold-glyph" x="604" y="643" width="55" height="55" fill="none" stroke="#1f2933" stroke-width="4" opacity="0.27" transform="rotate(18 631 670)"/>
  <rect data-layer="fold-glyph" x="696" y="647" width="69" height="69" fill="none" stroke="#1f2933" stroke-width="5" opacity="0.35" transform="rotate(26 730 681)"/>
  <rect data-layer="fold-glyph" x="387" y="772" width="76" height="76" fill="none" stroke="#1f2933" stroke-width="2" opacity="0.18" transform="rotate(18 425 810)"/>
  <rect data-layer="fold-glyph" x="491" y="757" width="55" height="55" fill="none" stroke="#1f2933" stroke-width="3" opacity="0.37" transform="rotate(-5 518 784)"/>
  <rect data-layer="fold-glyph" x="594" y="743" width="62" height="62" fill="#6730be" stroke="#1f2933" stroke-width="4" opacity="0.29" transform="rotate(4 625 774)"/>
  <rect data-layer="fold-glyph" x="709" y="769" width="55" height="55" fill="none" stroke="#1f2933" stroke-width="5" opacity="0.24" transform="rotate(26 736 796)"/>
  <rect data-layer="fold-glyph" x="390" y="856" width="83" height="83" fill="none" stroke="#1f2933" stroke-width="2" opacity="0.29" transform="rotate(-20 431 897)"/>
  <rect data-layer="fold-glyph" x="486" y="874" width="83" height="83" fill="none" stroke="#1f2933" stroke-width="3" opacity="0.36" transform="rotate(28 527 915)"/>
  <rect data-layer="fold-glyph" x="583" y="883" width="76" height="76" fill="#6730be" stroke="#1f2933" stroke-width="4" opacity="0.33" transform="rotate(-21 621 921)"/>
  <rect data-layer="fold-glyph" x="720" y="888" width="69" height="69" fill="#6730be" stroke="#1f2933" stroke-width="5" opacity="0.24" transform="rotate(4 754 922)"/>
  <path data-layer="fine-drawing" d="M390 591 q18 4 36 -4" fill="none" stroke="#1f2933" stroke-width="1" stroke-linecap="round" opacity="0.16"/>
  <path data-layer="fine-drawing" d="M595 606 q19 2 38 -2" fill="none" stroke="#1f2933" stroke-width="1" stroke-linecap="round" opacity="0.21"/>
  <path data-layer="fine-drawing" d="M543 490 q13 12 26 -10" fill="none" stroke="#1f2933" stroke-width="1" stroke-linecap="round" opacity="0.17"/>
  <path data-layer="fine-drawing" d="M571 612 q17 9 35 11" fill="none" stroke="#1f2933" stroke-width="1" stroke-linecap="round" opacity="0.19"/>
  <path data-layer="fine-drawing" d="M687 689 q10 12 21 2" fill="none" stroke="#1f2933" stroke-width="1" stroke-linecap="round" opacity="0.21"/>
  <path data-layer="fine-drawing" d="M708 667 q15 -3 31 12" fill="none" stroke="#1f2933" stroke-width="1" stroke-linecap="round" opacity="0.18"/>
  <path data-layer="fine-drawing" d="M767 952 q22 -13 45 4" fill="none" stroke="#1f2933" stroke-width="1" stroke-linecap="round" opacity="0.12"/>
  <path data-layer="fine-drawing" d="M707 910 q20 2 40 -10" fill="none" stroke="#1f2933" stroke-width="1" stroke-linecap="round" opacity="0.18"/>
  <path data-layer="fine-drawing" d="M681 1076 q22 13 44 3" fill="none" stroke="#1f2933" stroke-width="1" stroke-linecap="round" opacity="0.14"/>
  <path data-layer="fine-drawing" d="M832 1053 q14 16 28 -1" fill="none" stroke="#1f2933" stroke-width="1" stroke-linecap="round" opacity="0.08"/>
  <path data-layer="fine-drawing" d="M348 965 q7 10 14 6" fill="none" stroke="#1f2933" stroke-width="1" stroke-linecap="round" opacity="0.11"/>
  <path data-layer="fine-drawing" d="M414 355 q22 -15 44 -2" fill="none" stroke="#1f2933" stroke-width="1" stroke-linecap="round" opacity="0.10"/>
  <path data-layer="fine-drawing" d="M413 372 q18 -6 37 -11" fill="none" stroke="#1f2933" stroke-width="1" stroke-linecap="round" opacity="0.13"/>
  <path data-layer="fine-drawing" d="M881 507 q11 -3 22 2" fill="none" stroke="#1f2933" stroke-width="1" stroke-linecap="round" opacity="0.19"/>
  <path data-layer="fine-drawing" d="M387 487 q25 -15 51 8" fill="none" stroke="#1f2933" stroke-width="1" stroke-linecap="round" opacity="0.21"/>
  <path data-layer="fine-drawing" d="M448 444 q14 17 29 11" fill="none" stroke="#1f2933" stroke-width="1" stroke-linecap="round" opacity="0.16"/>
  <path data-layer="fine-drawing" d="M410 645 q22 3 45 -9" fill="none" stroke="#1f2933" stroke-width="1" stroke-linecap="round" opacity="0.17"/>
  <path data-layer="fine-drawing" d="M679 762 q15 18 30 6" fill="none" stroke="#1f2933" stroke-width="1" stroke-linecap="round" opacity="0.13"/>
  <path data-layer="fine-drawing" d="M621 860 q24 6 49 -4" fill="none" stroke="#1f2933" stroke-width="1" stroke-linecap="round" opacity="0.16"/>
  <path data-layer="fine-drawing" d="M771 703 q12 -14 25 12" fill="none" stroke="#1f2933" stroke-width="1" stroke-linecap="round" opacity="0.11"/>
  <path data-layer="fine-drawing" d="M732 922 q27 4 54 3" fill="none" stroke="#1f2933" stroke-width="1" stroke-linecap="round" opacity="0.09"/>
  <path data-layer="fine-drawing" d="M628 879 q16 -2 33 1" fill="none" stroke="#1f2933" stroke-width="1" stroke-linecap="round" opacity="0.16"/>
  <path data-layer="fine-drawing" d="M802 1100 q16 9 33 8" fill="none" stroke="#1f2933" stroke-width="1" stroke-linecap="round" opacity="0.09"/>
  <path data-layer="fine-drawing" d="M803 1064 q17 -2 34 6" fill="none" stroke="#1f2933" stroke-width="1" stroke-linecap="round" opacity="0.13"/>
  <path data-layer="fine-drawing" d="M322 1108 q26 -17 53 8" fill="none" stroke="#1f2933" stroke-width="1" stroke-linecap="round" opacity="0.16"/>
  <path data-layer="fine-drawing" d="M886 440 q13 3 27 -2" fill="none" stroke="#1f2933" stroke-width="1" stroke-linecap="round" opacity="0.18"/>
  <path data-layer="fine-drawing" d="M827 477 q17 12 34 -9" fill="none" stroke="#1f2933" stroke-width="1" stroke-linecap="round" opacity="0.15"/>
  <path data-layer="fine-drawing" d="M412 552 q20 17 40 2" fill="none" stroke="#1f2933" stroke-width="1" stroke-linecap="round" opacity="0.10"/>
  <path data-layer="fine-drawing" d="M513 508 q13 -13 27 9" fill="none" stroke="#1f2933" stroke-width="1" stroke-linecap="round" opacity="0.12"/>
  <path data-layer="fine-drawing" d="M595 498 q23 9 46 11" fill="none" stroke="#1f2933" stroke-width="1" stroke-linecap="round" opacity="0.19"/>
  <path data-layer="fine-drawing" d="M422 665 q26 -5 52 7" fill="none" stroke="#1f2933" stroke-width="1" stroke-linecap="round" opacity="0.10"/>
  <path data-layer="fine-drawing" d="M625 797 q18 18 37 -10" fill="none" stroke="#1f2933" stroke-width="1" stroke-linecap="round" opacity="0.10"/>
  <path data-layer="fine-drawing" d="M566 879 q18 4 36 -4" fill="none" stroke="#1f2933" stroke-width="1" stroke-linecap="round" opacity="0.16"/>
  <path data-layer="fine-drawing" d="M771 894 q19 2 38 -2" fill="none" stroke="#1f2933" stroke-width="1" stroke-linecap="round" opacity="0.21"/>
  <path data-layer="fine-drawing" d="M719 778 q13 12 26 -10" fill="none" stroke="#1f2933" stroke-width="1" stroke-linecap="round" opacity="0.17"/>
  <path data-layer="fine-drawing" d="M747 900 q17 9 35 11" fill="none" stroke="#1f2933" stroke-width="1" stroke-linecap="round" opacity="0.19"/>
  <path data-layer="fine-drawing" d="M863 977 q10 12 21 2" fill="none" stroke="#1f2933" stroke-width="1" stroke-linecap="round" opacity="0.21"/>
  <path data-layer="fine-drawing" d="M884 955 q15 -3 31 12" fill="none" stroke="#1f2933" stroke-width="1" stroke-linecap="round" opacity="0.18"/>
  <path data-layer="fine-drawing" d="M343 440 q22 -13 45 4" fill="none" stroke="#1f2933" stroke-width="1" stroke-linecap="round" opacity="0.12"/>
  <path data-layer="fine-drawing" d="M883 398 q20 2 40 -10" fill="none" stroke="#1f2933" stroke-width="1" stroke-linecap="round" opacity="0.18"/>
  <path data-layer="fine-drawing" d="M857 564 q22 13 44 3" fill="none" stroke="#1f2933" stroke-width="1" stroke-linecap="round" opacity="0.14"/>
  <path data-layer="fine-drawing" d="M408 541 q14 16 28 -1" fill="none" stroke="#1f2933" stroke-width="1" stroke-linecap="round" opacity="0.08"/>
  <path data-layer="fine-drawing" d="M524 453 q7 10 14 6" fill="none" stroke="#1f2933" stroke-width="1" stroke-linecap="round" opacity="0.11"/>
  <path data-layer="fine-drawing" d="M590 643 q22 -15 44 -2" fill="none" stroke="#1f2933" stroke-width="1" stroke-linecap="round" opacity="0.10"/>
  <path data-layer="fine-drawing" d="M589 660 q18 -6 37 -11" fill="none" stroke="#1f2933" stroke-width="1" stroke-linecap="round" opacity="0.13"/>
  <path data-layer="fine-drawing" d="M457 795 q11 -3 22 2" fill="none" stroke="#1f2933" stroke-width="1" stroke-linecap="round" opacity="0.19"/>
  <path data-layer="fine-drawing" d="M563 775 q25 -15 51 8" fill="none" stroke="#1f2933" stroke-width="1" stroke-linecap="round" opacity="0.21"/>
  <path data-layer="fine-drawing" d="M624 732 q14 17 29 11" fill="none" stroke="#1f2933" stroke-width="1" stroke-linecap="round" opacity="0.16"/>
  <path data-layer="fine-drawing" d="M586 933 q22 3 45 -9" fill="none" stroke="#1f2933" stroke-width="1" stroke-linecap="round" opacity="0.17"/>
  <path data-layer="fine-drawing" d="M855 1050 q15 18 30 6" fill="none" stroke="#1f2933" stroke-width="1" stroke-linecap="round" opacity="0.13"/>
  <path data-layer="fine-drawing" d="M797 1148 q24 6 49 -4" fill="none" stroke="#1f2933" stroke-width="1" stroke-linecap="round" opacity="0.16"/>
  <path data-layer="fine-drawing" d="M347 991 q12 -14 25 12" fill="none" stroke="#1f2933" stroke-width="1" stroke-linecap="round" opacity="0.11"/>
  <path data-layer="fine-drawing" d="M308 410 q27 4 54 3" fill="none" stroke="#1f2933" stroke-width="1" stroke-linecap="round" opacity="0.09"/>
  <path data-layer="fine-drawing" d="M804 367 q16 -2 33 1" fill="none" stroke="#1f2933" stroke-width="1" stroke-linecap="round" opacity="0.16"/>
  <path data-layer="fine-drawing" d="M378 588 q16 9 33 8" fill="none" stroke="#1f2933" stroke-width="1" stroke-linecap="round" opacity="0.09"/>
  <path data-layer="fine-drawing" d="M379 552 q17 -2 34 6" fill="none" stroke="#1f2933" stroke-width="1" stroke-linecap="round" opacity="0.13"/>
  <path data-layer="fine-drawing" d="M498 596 q26 -17 53 8" fill="none" stroke="#1f2933" stroke-width="1" stroke-linecap="round" opacity="0.16"/>
  <path data-layer="fine-drawing" d="M462 728 q13 3 27 -2" fill="none" stroke="#1f2933" stroke-width="1" stroke-linecap="round" opacity="0.18"/>
  <path data-layer="fine-drawing" d="M403 765 q17 12 34 -9" fill="none" stroke="#1f2933" stroke-width="1" stroke-linecap="round" opacity="0.15"/>
  <path data-layer="fine-drawing" d="M588 840 q20 17 40 2" fill="none" stroke="#1f2933" stroke-width="1" stroke-linecap="round" opacity="0.10"/>
  <path data-layer="fine-drawing" d="M689 796 q13 -13 27 9" fill="none" stroke="#1f2933" stroke-width="1" stroke-linecap="round" opacity="0.12"/>
  <path data-layer="fine-drawing" d="M771 786 q23 9 46 11" fill="none" stroke="#1f2933" stroke-width="1" stroke-linecap="round" opacity="0.19"/>
  <path data-layer="fine-drawing" d="M598 953 q26 -5 52 7" fill="none" stroke="#1f2933" stroke-width="1" stroke-linecap="round" opacity="0.10"/>
  <path data-layer="fine-drawing" d="M801 1085 q18 18 37 -10" fill="none" stroke="#1f2933" stroke-width="1" stroke-linecap="round" opacity="0.10"/>
  <path data-layer="fine-drawing" d="M742 367 q18 4 36 -4" fill="none" stroke="#1f2933" stroke-width="1" stroke-linecap="round" opacity="0.16"/>
  <path data-layer="fine-drawing" d="M347 382 q19 2 38 -2" fill="none" stroke="#1f2933" stroke-width="1" stroke-linecap="round" opacity="0.21"/>
  <path data-layer="fine-drawing" d="M895 1066 q13 12 26 -10" fill="none" stroke="#1f2933" stroke-width="1" stroke-linecap="round" opacity="0.17"/>
  <path data-layer="fine-drawing" d="M323 388 q17 9 35 11" fill="none" stroke="#1f2933" stroke-width="1" stroke-linecap="round" opacity="0.19"/>
  <path data-layer="fine-drawing" d="M439 465 q10 12 21 2" fill="none" stroke="#1f2933" stroke-width="1" stroke-linecap="round" opacity="0.21"/>
  <path data-layer="fine-drawing" d="M460 443 q15 -3 31 12" fill="none" stroke="#1f2933" stroke-width="1" stroke-linecap="round" opacity="0.18"/>
  </g>
  <path data-layer="fold-notation" d="M127 128 l54 -2" fill="none" stroke="#1f2933" stroke-width="3" stroke-linecap="round" opacity="0.44"/>
  <path data-layer="fold-notation" d="M1051 237 l68 11" fill="none" stroke="#1f2933" stroke-width="3" stroke-linecap="round" opacity="0.44"/>
  <path data-layer="fold-notation" d="M86 301 l40 -3" fill="none" stroke="#1f2933" stroke-width="3" stroke-linecap="round" opacity="0.44"/>
  <path data-layer="fold-notation" d="M1039 363 l82 -15" fill="none" stroke="#1f2933" stroke-width="3" stroke-linecap="round" opacity="0.44"/>
  <path data-layer="fold-notation" d="M59 443 l33 8" fill="none" stroke="#1f2933" stroke-width="3" stroke-linecap="round" opacity="0.44"/>
  <path data-layer="fold-notation" d="M1049 538 l75 -13" fill="none" stroke="#1f2933" stroke-width="3" stroke-linecap="round" opacity="0.44"/>
  <path data-layer="fold-notation" d="M94 589 l61 3" fill="none" stroke="#1f2933" stroke-width="3" stroke-linecap="round" opacity="0.44"/>
  <path data-layer="fold-notation" d="M1017 644 l75 10" fill="none" stroke="#1f2933" stroke-width="3" stroke-linecap="round" opacity="0.44"/>
  <path data-layer="fold-notation" d="M85 755 l47 15" fill="none" stroke="#1f2933" stroke-width="3" stroke-linecap="round" opacity="0.44"/>
  <path data-layer="fold-notation" d="M1056 794 l33 10" fill="none" stroke="#1f2933" stroke-width="3" stroke-linecap="round" opacity="0.44"/>
  <path data-layer="fold-notation" d="M83 895 l40 -3" fill="none" stroke="#1f2933" stroke-width="3" stroke-linecap="round" opacity="0.44"/>
  <path data-layer="fold-notation" d="M995 981 l68 2" fill="none" stroke="#1f2933" stroke-width="3" stroke-linecap="round" opacity="0.44"/>
  <path data-layer="fold-notation" d="M110 1063 l61 15" fill="none" stroke="#1f2933" stroke-width="3" stroke-linecap="round" opacity="0.44"/>
  <path data-layer="fold-notation" d="M999 1129 l26 -11" fill="none" stroke="#1f2933" stroke-width="3" stroke-linecap="round" opacity="0.44"/>
  <path data-layer="fold-notation" d="M97 1182 l54 16" fill="none" stroke="#1f2933" stroke-width="3" stroke-linecap="round" opacity="0.44"/>
  <path data-layer="fold-notation" d="M1054 1264 l47 -12" fill="none" stroke="#1f2933" stroke-width="3" stroke-linecap="round" opacity="0.44"/>
  <circle data-layer="field-dust" cx="210" cy="234" r="1" fill="#1f2933" opacity="0.24"/>
  <circle data-layer="field-dust" cx="458" cy="408" r="2" fill="#1f2933" opacity="0.15"/>
  <circle data-layer="field-dust" cx="470" cy="404" r="3" fill="#1f2933" opacity="0.25"/>
  <circle data-layer="field-dust" cx="663" cy="703" r="1" fill="#1f2933" opacity="0.17"/>
  <circle data-layer="field-dust" cx="705" cy="786" r="2" fill="#1f2933" opacity="0.17"/>
  <circle data-layer="field-dust" cx="719" cy="860" r="3" fill="#1f2933" opacity="0.19"/>
  <circle data-layer="field-dust" cx="859" cy="1017" r="1" fill="#1f2933" opacity="0.11"/>
  <circle data-layer="field-dust" cx="821" cy="1252" r="2" fill="#1f2933" opacity="0.16"/>
  <circle data-layer="field-dust" cx="126" cy="1271" r="3" fill="#1f2933" opacity="0.17"/>
  <circle data-layer="field-dust" cx="175" cy="1308" r="1" fill="#1f2933" opacity="0.11"/>
  <circle data-layer="field-dust" cx="215" cy="343" r="2" fill="#1f2933" opacity="0.18"/>
  <circle data-layer="field-dust" cx="338" cy="303" r="3" fill="#1f2933" opacity="0.11"/>
  <circle data-layer="field-dust" cx="539" cy="563" r="1" fill="#1f2933" opacity="0.20"/>
  <circle data-layer="field-dust" cx="524" cy="752" r="2" fill="#1f2933" opacity="0.13"/>
  <circle data-layer="field-dust" cx="527" cy="922" r="3" fill="#1f2933" opacity="0.18"/>
  <circle data-layer="field-dust" cx="808" cy="1014" r="1" fill="#1f2933" opacity="0.15"/>
  <circle data-layer="field-dust" cx="734" cy="1042" r="2" fill="#1f2933" opacity="0.24"/>
  <circle data-layer="field-dust" cx="960" cy="1214" r="3" fill="#1f2933" opacity="0.10"/>
  <circle data-layer="field-dust" cx="155" cy="166" r="1" fill="#1f2933" opacity="0.11"/>
  <circle data-layer="field-dust" cx="291" cy="1366" r="2" fill="#1f2933" opacity="0.22"/>
  <circle data-layer="field-dust" cx="349" cy="434" r="3" fill="#1f2933" opacity="0.10"/>
  <circle data-layer="field-dust" cx="343" cy="343" r="1" fill="#1f2933" opacity="0.20"/>
  <circle data-layer="field-dust" cx="481" cy="587" r="2" fill="#1f2933" opacity="0.19"/>
  <circle data-layer="field-dust" cx="679" cy="745" r="3" fill="#1f2933" opacity="0.20"/>
  <circle data-layer="field-dust" cx="565" cy="896" r="1" fill="#1f2933" opacity="0.11"/>
  <circle data-layer="field-dust" cx="879" cy="1053" r="2" fill="#1f2933" opacity="0.22"/>
  <circle data-layer="field-dust" cx="754" cy="991" r="3" fill="#1f2933" opacity="0.22"/>
  <circle data-layer="field-dust" cx="964" cy="1187" r="1" fill="#1f2933" opacity="0.15"/>
  <circle data-layer="field-dust" cx="128" cy="189" r="2" fill="#1f2933" opacity="0.12"/>
  <circle data-layer="field-dust" cx="245" cy="235" r="3" fill="#1f2933" opacity="0.23"/>
  <circle data-layer="field-dust" cx="368" cy="462" r="1" fill="#1f2933" opacity="0.16"/>
  <circle data-layer="field-dust" cx="272" cy="538" r="2" fill="#1f2933" opacity="0.24"/>
  <circle data-layer="field-dust" cx="434" cy="586" r="3" fill="#1f2933" opacity="0.24"/>
  <circle data-layer="field-dust" cx="682" cy="760" r="1" fill="#1f2933" opacity="0.15"/>
  <circle data-layer="field-dust" cx="694" cy="756" r="2" fill="#1f2933" opacity="0.25"/>
  <g font-family="ui-monospace, SFMono-Regular, Menlo, monospace" fill="#1f2933">
    <text x="600" y="1460" text-anchor="middle" font-size="30">5af19cfcc5729d16</text>
    <text x="600" y="1482" text-anchor="middle" font-size="17" opacity="0.72">abstract study v0001</text>
    <text x="600" y="1510" text-anchor="middle" font-size="15" opacity="0.72">field width 0.90 vertical 1.14 taper 1.19</text>
    <text x="600" y="1526" text-anchor="middle" font-size="15" opacity="0.72">paired interval 0.98 mark scale 1.03 tension -10.85</text>
    <text x="600" y="1542" text-anchor="middle" font-size="15" opacity="0.72">central descent 1.01 breadth 1.01</text>
    <text x="600" y="1558" text-anchor="middle" font-size="15" opacity="0.72">lateral span 1.16 curve pressure 7.41</text>
    <text x="600" y="1574" text-anchor="middle" font-size="15" opacity="0.72">surface activity 0.06 dense mass 1.08</text>
    <text x="600" y="1590" text-anchor="middle" font-size="15" opacity="0.72">axis light 48.45 strength 0.29</text>
  </g>
</svg>